Coordinates
version=1
nRows=24
nColumns=24
inDegrees=yes

Units are S.I. units (second, meters, Newtons, ...)
Angles are in degrees.

endheader
time	pelvis_tilt	pelvis_list	pelvis_rotation	pelvis_tx	pelvis_ty	pelvis_tz	hip_flexion_r	hip_adduction_r	hip_rotation_r	knee_angle_r	ankle_angle_r	subtalar_angle_r	mtp_angle_r	hip_flexion_l	hip_adduction_l	hip_rotation_l	knee_angle_l	ankle_angle_l	subtalar_angle_l	mtp_angle_l	lumbar_extension	lumbar_bending	lumbar_rotation
      1.33333333	      2.95313313	      4.36823342	     -2.70704932	      0.22204726	      1.07117745	      0.31613532	     13.75985405	     -5.19840464	      0.58140708	    -68.69227876	     -3.29475776	    -14.55309808	      3.08066529	      4.50300360	      8.39524219	     -6.19705025	     -9.30118567	      3.32327947	      2.22396050	     -0.12801221	      0.60943189	     -1.89799717	     -1.34331373
      1.33750000	      2.97364909	      4.36626754	     -2.69916751	      0.22700221	      1.07168193	      0.31586989	     14.36421097	     -5.12535562	      0.79070373	    -68.60249834	     -2.93000922	    -14.60156122	      3.02681424	      4.10272044	      8.43501627	     -6.09507766	     -9.13740328	      3.44129416	      2.33009038	     -0.14962865	      0.54125888	     -1.82266811	     -1.40004783
      1.34166667	      2.97997685	      4.32991422	     -2.65268582	      0.23196678	      1.07218226	      0.31575362	     14.94869730	     -4.99314056	      0.97392593	    -68.44783332	     -2.26751735	    -14.59757826	      2.92636828	      3.73290112	      8.41267177	     -6.09096954	     -9.03243770	      3.67345365	      2.41910552	     -0.19453722	      0.50052717	     -1.81608813	     -1.46804280
      1.34583333	      2.99235712	      4.30504378	     -2.62252704	      0.23688603	      1.07266118	      0.31561549	     15.52174388	     -4.87292404	      1.18395051	    -68.20708053	     -2.04320507	    -14.60760469	      2.89679243	      3.34596928	      8.41103160	     -5.97094452	     -8.88828220	      3.74206913	      2.49370361	     -0.20750820	      0.42358540	     -1.76874726	     -1.50805226
      1.35000000	      3.00156273	      4.30719767	     -2.58619767	      0.24181704	      1.07308935	      0.31541185	     16.08601026	     -4.79384882	      1.37627094	    -67.97121988	     -1.24037914	    -14.28140089	      2.69058699	      2.97009079	      8.44650729	     -5.94141601	     -8.75785742	      4.02039016	      2.66834375	     -0.31358268	      0.35281767	     -1.76467867	     -1.62907698
      1.35416667	      3.02809774	      4.29474619	     -2.57195554	      0.24682390	      1.07354656	      0.31526093	     16.60770082	     -4.68780959	      1.58178800	    -67.62198822	     -0.93546926	    -14.34294330	      2.64096417	      2.55035044	      8.46752300	     -5.84013182	     -8.57812120	      4.12410327	      2.70622964	     -0.33871578	      0.33676893	     -1.70201890	     -1.67325348
      1.35833333	      3.04673556	      4.28154960	     -2.54071465	      0.25178531	      1.07395817	      0.31513844	     17.12197166	     -4.57733935	      1.77221001	    -67.23156215	     -0.47987748	    -14.34215890	      2.57916550	      2.14828410	      8.48181855	     -5.74431619	     -8.42101146	      4.28988998	      2.73838770	     -0.37224162	      0.28124609	     -1.66453737	     -1.72712956
      1.36250000	      3.08223023	      4.26607692	     -2.50439160	      0.25673649	      1.07437443	      0.31501031	     17.59811641	     -4.46667849	      1.95930699	    -66.77440412	     -0.05401319	    -14.27018098	      2.51751354	      1.72422980	      8.49674138	     -5.63729300	     -8.25140704	      4.44224079	      2.77434507	     -0.40795579	      0.21822158	     -1.64087830	     -1.78457576
      1.36666667	      3.11107478	      4.25330257	     -2.45956127	      0.26168282	      1.07475577	      0.31490355	     18.06293252	     -4.35698132	      2.13878928	    -66.26499707	      0.39160609	    -14.15083147	      2.44650691	      1.30847415	      8.51158788	     -5.52793160	     -8.08678847	      4.60239607	      2.79947389	     -0.45160536	      0.14694254	     -1.61831155	     -1.85217735
      1.37083333	      3.09886878	      4.23004815	     -2.38281587	      0.26660017	      1.07506047	      0.31489173	     18.54862921	     -4.22594613	      2.29391980	    -65.67173906	      0.57048702	    -14.12584910	      2.42504110	      0.95173874	      8.49758151	     -5.45937213	     -7.94906575	      4.65980485	      2.81273055	     -0.46489990	      0.05589765	     -1.64144489	     -1.87716706
      1.37500000	      3.17876524	      4.23159090	     -2.33123717	      0.27152827	      1.07544668	      0.31466266	     18.92139410	     -4.15444486	      2.45556915	    -65.07321859	      1.26145401	    -13.76052578	      2.25508215	      0.46723697	      8.54835410	     -5.26702104	     -7.75572437	      4.89439933	      2.79118665	     -0.58139431	     -0.09542636	     -1.60632069	     -2.03820419
      1.37916667	      3.16085533	      4.22023294	     -2.27870074	      0.27652386	      1.07569092	      0.31468196	     19.37539908	     -4.03163892	      2.62564437	    -64.36981933	      1.40224531	    -13.77768704	      2.23420665	      0.09778991	      8.55122178	     -5.19216841	     -7.58323584	      4.93930224	      2.80087135	     -0.59472850	     -0.13018442	     -1.63404281	     -2.05707096
      1.38333333	      3.19554472	      4.22654619	     -2.26628002	      0.28157812	      1.07596058	      0.31458582	     19.75846677	     -3.94309507	      2.80903903	    -63.63445499	      1.72731464	    -13.79473446	      2.18715745	     -0.35699700	      8.59894991	     -5.04130099	     -7.35163861	      5.07748745	      2.78354059	     -0.62669986	     -0.08701203	     -1.60042099	     -2.11045387
      1.38750000	      3.16672303	      4.22026327	     -2.19982937	      0.28652761	      1.07611719	      0.31462203	     20.18910693	     -3.82860310	      2.96132875	    -62.83195016	      1.91025012	    -13.79882114	      2.16494898	     -0.70982914	      8.60552102	     -4.95416651	     -7.18821063	      5.14784474	      2.76931685	     -0.64203911	     -0.17301072	     -1.63428759	     -2.13789554
      1.39166667	      3.15264769	      4.22232747	     -2.16003848	      0.29155261	      1.07626253	      0.31462819	     20.58261247	     -3.72714522	      3.12278015	    -61.97852005	      2.12237631	    -13.81440324	      2.14238455	     -1.10069103	      8.63123412	     -4.83268227	     -6.98093872	      5.23929522	      2.75381103	     -0.65760831	     -0.20738446	     -1.65412212	     -2.17094973
      1.39583333	      3.22870144	      4.22728808	     -2.12200734	      0.29661657	      1.07651948	      0.31446768	     20.84942947	     -3.66039832	      3.24726172	    -61.07477322	      2.47542559	    -13.83040773	      2.08775960	     -1.61398575	      8.68698031	     -4.61434656	     -6.72560485	      5.42502492	      2.65833204	     -0.69817315	     -0.17349993	     -1.60754447	     -2.25679788
      1.40000000	      3.18239393	      4.23949426	     -2.05131074	      0.30156845	      1.07655460	      0.31451649	     21.23971166	     -3.57362495	      3.38097636	    -60.11722934	      2.61577746	    -13.84526870	      2.06628540	     -1.95090587	      8.71223125	     -4.52887818	     -6.55688663	      5.48029534	      2.62407951	     -0.71402977	     -0.28238250	     -1.65861499	     -2.28858887
      1.40416667	      3.38821201	      4.21970934	     -1.93523771	      0.30649416	      1.07696780	      0.31416030	     21.30648405	     -3.53372105	      3.38747355	    -59.07352631	      2.87559776	    -13.88556411	      1.84572447	     -2.61879983	      8.75492262	     -4.04442822	     -6.26615726	      5.60864094	      2.21025922	     -0.89258102	     -0.57591639	     -1.60506669	     -2.61346418
      1.40833333	      3.35632927	      4.23160140	     -1.91262218	      0.31158939	      1.07697370	      0.31422827	     21.63173548	     -3.44605635	      3.53009169	    -58.00002220	      2.97812431	    -13.96022763	      1.79807369	     -2.99973255	      8.78962563	     -3.98450569	     -6.04088850	      5.65610024	      2.16731169	     -0.92939561	     -0.50356183	     -1.65414553	     -2.64510021
      1.41250000	      3.36157431	      4.22046016	     -1.82043282	      0.31666283	      1.07703803	      0.31412979	     21.87431942	     -3.37261567	      3.57099476	    -56.84994202	      3.02606484	    -14.22805562	      1.65789439	     -3.42933194	      8.80481886	     -3.76531476	     -5.81218329	      5.77312855	      1.97167754	     -1.03959107	     -0.55724819	     -1.58859455	     -2.77502739
      1.41666667	      3.32703317	      4.25143713	     -1.80622194	      0.32170801	      1.07696052	      0.31419540	     22.16948778	     -3.31180946	      3.70358728	    -55.68303561	      3.08378573	    -14.32360605	      1.61038005	     -3.81173908	      8.86324700	     -3.64261014	     -5.56843312	      5.81117349	      1.94631812	     -1.07603996	     -0.51112899	     -1.69790631	     -2.79876644
      1.42083333	      3.30726814	      4.25973379	     -1.75740181	      0.32681504	      1.07690664	      0.31418781	     22.40506139	     -3.24772763	      3.77598760	    -54.44188591	      3.09529578	    -14.53595358	      1.54230704	     -4.21998563	      8.89715937	     -3.48038232	     -5.32446635	      5.89736312	      1.84630125	     -1.12771200	     -0.46027836	     -1.70983053	     -2.85704134
      1.42500000	      3.27767953	      4.26180394	     -1.70141813	      0.33192300	      1.07682896	      0.31418499	     22.62443907	     -3.18122163	      3.82237173	    -53.13773666	      3.05682709	    -14.79926054	      1.46918110	     -4.61777992	      8.92188055	     -3.30473728	     -5.07668586	      5.97388609	      1.73066266	     -1.18299808	     -0.43288760	     -1.73220774	     -2.92400192
      1.42916667	      3.24356105	      4.27620303	     -1.64055141	      0.33703475	      1.07670429	      0.31415789	     22.82611385	     -3.13690998	      3.84911450	    -51.78732008	      2.96442141	    -15.12010172	      1.38579322	     -5.01112994	      8.96022688	     -3.12653381	     -4.83029415	      6.04392017	      1.59502441	     -1.24615733	     -0.41432108	     -1.75213988	     -3.00406951
